HIERARCHY
ROOT Hips
{
	OFFSET 0.000000 96.790665 0.000000
	CHANNELS 6 Xposition Yposition Zposition Xrotation Yrotation Zrotation 
	JOINT Spine
	{
		OFFSET 0.000000 11.752701 -0.535200
		CHANNELS 3 Xrotation Yrotation Zrotation
		JOINT Spine1
		{
			OFFSET 0.000000 9.793854 -0.445987
			CHANNELS 3 Xrotation Yrotation Zrotation
			JOINT Spine1_split
			{
				OFFSET 0.000000 9.793854 -0.445987
				CHANNELS 3 Xrotation Yrotation Zrotation
				JOINT Spine2
				{
					OFFSET 0.000000 9.793854 -0.445987
					CHANNELS 3 Xrotation Yrotation Zrotation
					JOINT Neck
					{
						OFFSET 0.000000 17.628937 -0.802776
						CHANNELS 3 Xrotation Yrotation Zrotation
						JOINT Head
						{
							OFFSET 0.000000 5.016602 1.880200
							CHANNELS 3 Xrotation Yrotation Zrotation
							JOINT HeadTop_End
							{
								OFFSET 0.000000 20.743408 7.774600
								CHANNELS 3 Xrotation Yrotation Zrotation
								End Site
								{
									OFFSET 0.000000 0.000000 0.000000
								}
							}
						}
					}
					JOINT LeftShoulder
					{
						OFFSET 3.924850 7.377754 -0.393173
						CHANNELS 3 Xrotation Yrotation Zrotation
						JOINT LeftShoulder_split
						{
							OFFSET 3.924850 7.377754 -0.393173
							CHANNELS 3 Xrotation Yrotation Zrotation
							JOINT LeftArm
							{
								OFFSET 15.636079 -5.611938 0.032868
								CHANNELS 3 Xrotation Yrotation Zrotation
								JOINT LeftForeArm
								{
									OFFSET 22.575607 0.000000 -0.000000
									CHANNELS 3 Xrotation Yrotation Zrotation
									JOINT LeftHand
									{
										OFFSET 23.494789 0.000000 -0.000001
										CHANNELS 3 Xrotation Yrotation Zrotation
										JOINT LeftHandThumb1
										{
											OFFSET 3.226456 -1.228531 2.654899
											CHANNELS 3 Xrotation Yrotation Zrotation
											JOINT LeftHandThumb2
											{
												OFFSET 2.698822 -1.558167 1.558164
												CHANNELS 3 Xrotation Yrotation Zrotation
												JOINT LeftHandThumb3
												{
													OFFSET 2.640388 -1.524429 1.524428
													CHANNELS 3 Xrotation Yrotation Zrotation
													JOINT LeftHandThumb4
													{
														OFFSET 2.346039 -1.354492 1.354488
														CHANNELS 3 Xrotation Yrotation Zrotation
														End Site
														{
															OFFSET 0.000000 0.000000 0.000000
														}
													}
												}
											}
										}
										JOINT LeftHandIndex1
										{
											OFFSET 10.149338 -0.349152 2.573102
											CHANNELS 3 Xrotation Yrotation Zrotation
											JOINT LeftHandIndex2
											{
												OFFSET 3.319489 0.000000 -0.000000
												CHANNELS 3 Xrotation Yrotation Zrotation
												JOINT LeftHandIndex3
												{
													OFFSET 3.068123 0.000000 -0.000000
													CHANNELS 3 Xrotation Yrotation Zrotation
													JOINT LeftHandIndex4
													{
														OFFSET 2.664124 0.000000 -0.000000
														CHANNELS 3 Xrotation Yrotation Zrotation
														End Site
														{
															OFFSET 0.000000 0.000000 0.000000
														}
													}
												}
											}
										}
										JOINT LeftHandMiddle1
										{
											OFFSET 10.136444 0.000000 -0.000000
											CHANNELS 3 Xrotation Yrotation Zrotation
											JOINT LeftHandMiddle2
											{
												OFFSET 3.520729 0.000000 -0.000000
												CHANNELS 3 Xrotation Yrotation Zrotation
												JOINT LeftHandMiddle3
												{
													OFFSET 3.274651 0.000000 -0.000000
													CHANNELS 3 Xrotation Yrotation Zrotation
													JOINT LeftHandMiddle4
													{
														OFFSET 2.918007 0.000000 -0.000000
														CHANNELS 3 Xrotation Yrotation Zrotation
														End Site
														{
															OFFSET 0.000000 0.000000 0.000000
														}
													}
												}
											}
										}
										JOINT LeftHandRing1
										{
											OFFSET 10.015709 -0.081619 -2.141669
											CHANNELS 3 Xrotation Yrotation Zrotation
											JOINT LeftHandRing2
											{
												OFFSET 2.742317 0.000000 0.000000
												CHANNELS 3 Xrotation Yrotation Zrotation
												JOINT LeftHandRing3
												{
													OFFSET 2.844040 0.000000 0.000000
													CHANNELS 3 Xrotation Yrotation Zrotation
													JOINT LeftHandRing4
													{
														OFFSET 2.134438 0.000000 0.000000
														CHANNELS 3 Xrotation Yrotation Zrotation
														End Site
														{
															OFFSET 0.000000 0.000000 0.000000
														}
													}
												}
											}
										}
										JOINT LeftHandPinky1
										{
											OFFSET 8.705978 -0.316788 -4.359827
											CHANNELS 3 Xrotation Yrotation Zrotation
											JOINT LeftHandPinky2
											{
												OFFSET 2.641701 0.000000 0.000000
												CHANNELS 3 Xrotation Yrotation Zrotation
												JOINT LeftHandPinky3
												{
													OFFSET 2.201149 0.000000 0.000000
													CHANNELS 3 Xrotation Yrotation Zrotation
													JOINT LeftHandPinky4
													{
														OFFSET 1.796135 0.000000 0.000000
														CHANNELS 3 Xrotation Yrotation Zrotation
														End Site
														{
															OFFSET 0.000000 0.000000 0.000000
														}
													}
												}
											}
										}
									}
								}
							}
						}
					}
					JOINT RightShoulder
					{
						OFFSET -3.924850 7.377754 -0.409590
						CHANNELS 3 Xrotation Yrotation Zrotation
						JOINT RightShoulder_split
						{
							OFFSET -3.924850 7.377754 -0.409590
							CHANNELS 3 Xrotation Yrotation Zrotation
							JOINT RightArm
							{
								OFFSET -15.636075 -5.611954 -0.032881
								CHANNELS 3 Xrotation Yrotation Zrotation
								JOINT RightForeArm
								{
									OFFSET -22.570602 0.000000 0.000001
									CHANNELS 3 Xrotation Yrotation Zrotation
									JOINT RightHand
									{
										OFFSET -23.493404 0.000000 0.000001
										CHANNELS 3 Xrotation Yrotation Zrotation
										JOINT RightHandThumb1
										{
											OFFSET -3.430145 -1.490677 2.732846
											CHANNELS 3 Xrotation Yrotation Zrotation
											JOINT RightHandThumb2
											{
												OFFSET -2.870445 -1.657257 1.657251
												CHANNELS 3 Xrotation Yrotation Zrotation
												JOINT RightHandThumb3
												{
													OFFSET -2.534035 -1.463028 1.463024
													CHANNELS 3 Xrotation Yrotation Zrotation
													JOINT RightHandThumb4
													{
														OFFSET -1.987206 -1.147308 1.147314
														CHANNELS 3 Xrotation Yrotation Zrotation
														End Site
														{
															OFFSET 0.000000 0.000000 0.000000
														}
													}
												}
											}
										}
										JOINT RightHandIndex1
										{
											OFFSET -10.580772 -0.429199 2.789807
											CHANNELS 3 Xrotation Yrotation Zrotation
											JOINT RightHandIndex2
											{
												OFFSET -3.088730 0.000000 0.000000
												CHANNELS 3 Xrotation Yrotation Zrotation
												JOINT RightHandIndex3
												{
													OFFSET -2.968605 0.000000 0.000000
													CHANNELS 3 Xrotation Yrotation Zrotation
													JOINT RightHandIndex4
													{
														OFFSET -2.463318 0.000000 0.000000
														CHANNELS 3 Xrotation Yrotation Zrotation
														End Site
														{
															OFFSET 0.000000 0.000000 0.000000
														}
													}
												}
											}
										}
										JOINT RightHandMiddle1
										{
											OFFSET -10.255600 0.000000 0.000000
											CHANNELS 3 Xrotation Yrotation Zrotation
											JOINT RightHandMiddle2
											{
												OFFSET -3.480217 0.000000 0.000000
												CHANNELS 3 Xrotation Yrotation Zrotation
												JOINT RightHandMiddle3
												{
													OFFSET -3.263023 0.000000 0.000000
													CHANNELS 3 Xrotation Yrotation Zrotation
													JOINT RightHandMiddle4
													{
														OFFSET -2.908302 0.000000 0.000000
														CHANNELS 3 Xrotation Yrotation Zrotation
														End Site
														{
															OFFSET 0.000000 0.000000 0.000000
														}
													}
												}
											}
										}
										JOINT RightHandRing1
										{
											OFFSET -10.230232 -0.198181 -2.204008
											CHANNELS 3 Xrotation Yrotation Zrotation
											JOINT RightHandRing2
											{
												OFFSET -2.884499 0.000000 0.000000
												CHANNELS 3 Xrotation Yrotation Zrotation
												JOINT RightHandRing3
												{
													OFFSET -2.646408 0.000000 0.000000
													CHANNELS 3 Xrotation Yrotation Zrotation
													JOINT RightHandRing4
													{
														OFFSET -2.253517 0.000000 0.000000
														CHANNELS 3 Xrotation Yrotation Zrotation
														End Site
														{
															OFFSET 0.000000 0.000000 0.000000
														}
													}
												}
											}
										}
										JOINT RightHandPinky1
										{
											OFFSET -8.863297 -0.363922 -4.365403
											CHANNELS 3 Xrotation Yrotation Zrotation
											JOINT RightHandPinky2
											{
												OFFSET -2.535202 0.000000 0.000000
												CHANNELS 3 Xrotation Yrotation Zrotation
												JOINT RightHandPinky3
												{
													OFFSET -2.269936 0.000000 0.000000
													CHANNELS 3 Xrotation Yrotation Zrotation
													JOINT RightHandPinky4
													{
														OFFSET -1.728821 0.000000 0.000000
														CHANNELS 3 Xrotation Yrotation Zrotation
														End Site
														{
															OFFSET 0.000000 0.000000 0.000000
														}
													}
												}
											}
										}
									}
								}
							}
						}
					}
				}
			}
		}
	}
	JOINT LeftUpLeg
	{
		OFFSET 9.840400 -6.511497 0.952000
		CHANNELS 3 Xrotation Yrotation Zrotation
		JOINT LeftLeg
		{
			OFFSET 0.627035 -41.050404 -3.190753
			CHANNELS 3 Xrotation Yrotation Zrotation
			JOINT LeftFoot
			{
				OFFSET -0.627030 -35.319065 0.072882
				CHANNELS 3 Xrotation Yrotation Zrotation
				JOINT LeftToeBase
				{
					OFFSET 1.465637 -12.398554 15.189803
					CHANNELS 3 Xrotation Yrotation Zrotation
					JOINT LeftToe_End
					{
						OFFSET 0.862418 0.262531 7.818803
						CHANNELS 3 Xrotation Yrotation Zrotation
						End Site
						{
							OFFSET 0.000000 0.000000 0.000000
						}
					}
				}
			}
		}
	}
	JOINT RightUpLeg
	{
		OFFSET -9.840400 -6.511497 0.242600
		CHANNELS 3 Xrotation Yrotation Zrotation
		JOINT RightLeg
		{
			OFFSET -0.627002 -41.050419 -2.758945
			CHANNELS 3 Xrotation Yrotation Zrotation
			JOINT RightFoot
			{
				OFFSET 0.627006 -35.319042 0.384006
				CHANNELS 3 Xrotation Yrotation Zrotation
				JOINT RightToeBase
				{
					OFFSET -1.465701 -12.398558 15.694283
					CHANNELS 3 Xrotation Yrotation Zrotation
					JOINT RightToe_End
					{
						OFFSET -0.862436 0.262525 7.962027
						CHANNELS 3 Xrotation Yrotation Zrotation
						End Site
						{
							OFFSET 0.000000 0.000000 0.000000
						}
					}
				}
			}
		}
	}
}
MOTION
Frames: 4
Frame Time: 0.016667
0.602406 96.373459 -1.621713 -2.007940 -4.149007 -1.314516 4.047506 1.591737 2.944794 2.360673 0.434635 2.824824 0.000000 0.000000 0.000000 2.336260 0.454915 2.828229 16.787203 0.306530 0.458530 16.783347 0.277075 0.490697 -0.000001 0.000000 -0.000000 1.196520 -18.114252 -11.454771 0.000000 0.000000 0.000000 -0.108716 -4.694342 -72.237037 0.000001 -0.313530 -0.000018 -43.431592 -9.416431 -2.883628 -4.638771 -6.060598 5.439438 7.940716 17.273244 19.131382 -14.075884 2.892288 8.977470 -0.000001 0.000006 -0.000001 2.051159 -1.544705 5.402391 0.260055 1.727750 -17.118595 0.054075 0.794885 -7.781054 0.000001 0.000001 -0.000000 0.062334 2.407249 0.986007 0.238899 1.657521 -16.402206 0.270266 1.760490 -17.453421 0.000002 -0.000000 -0.000003 0.256658 3.872310 -12.405527 0.337518 1.961564 -19.524687 0.237648 1.653301 -16.359341 0.000001 0.000000 -0.000002 1.147210 8.848851 -12.360741 0.205620 1.539972 -15.209073 0.175945 1.426374 -14.062655 -0.000000 0.000001 0.000000 0.924766 14.416321 16.469369 0.000000 0.000000 0.000000 8.411696 17.795231 56.693306 0.000003 7.231536 0.000006 -22.932210 2.769830 1.617389 -3.280985 4.816370 1.401691 8.062991 -19.539370 -17.916660 -16.167526 -1.354077 -11.845344 -0.000000 -0.000001 -0.000002 1.173517 -1.455096 -7.724245 0.095161 -0.937594 11.589395 0.003280 -0.175303 2.152506 -0.000001 -0.000000 -0.000000 0.014550 -2.464519 9.435310 0.148227 -1.166809 14.478823 0.169308 -1.245599 15.480641 -0.000001 -0.000001 -0.000002 -0.974706 -1.398896 27.122847 0.308048 -1.667253 20.934981 0.222544 -1.423856 17.765665 -0.000000 -0.000001 -0.000003 -0.268586 -3.795090 35.217070 0.197816 -1.344307 16.742481 0.169001 -1.244458 15.465978 -0.000000 -0.000001 0.000001 -13.482710 13.831717 8.208202 14.729530 1.781432 3.970636 0.596975 0.870098 -7.124469 -4.977120 0.000001 0.000005 0.000001 -0.000000 -0.000000 -4.210597 -10.295047 1.051265 13.335931 -10.130434 -3.681294 -6.902282 -2.842579 3.901044 -7.247991 -0.000004 -0.000004 0.000000 -0.000001 -0.000001 
0.601423 96.370361 -1.607006 -2.061593 -4.146475 -1.328715 4.036070 1.591553 2.934098 2.339598 0.435838 2.805096 0.000000 0.000000 0.000000 2.315175 0.456592 2.808529 16.684890 0.267843 0.586044 16.681006 0.238985 0.618194 0.000003 0.000000 -0.000000 1.196578 -18.085094 -11.448161 0.000000 0.000000 0.000000 -0.076127 -4.895484 -72.365526 0.000013 -0.410919 0.000002 -43.263678 -9.490622 -2.889224 -4.610029 -5.961815 5.363179 7.956736 17.310910 19.124064 -14.077990 2.885228 8.976760 0.000004 0.000003 0.000000 2.011027 -1.556914 5.297298 0.260532 1.729271 -17.134054 0.054272 0.796445 -7.796491 -0.000001 -0.000000 0.000000 0.062853 2.385644 0.919370 0.239126 1.658328 -16.410423 0.270473 1.761118 -17.459871 0.000003 -0.000001 0.000000 0.252931 3.857299 -12.315151 0.338432 1.964105 -19.551031 0.238419 1.655944 -16.386221 0.000000 0.000001 0.000004 1.156982 8.782619 -12.602336 0.207363 1.546427 -15.274449 0.177600 1.432938 -14.128680 -0.000001 -0.000001 0.000002 0.925476 14.399876 16.467391 0.000000 0.000000 0.000000 8.465824 17.905401 56.727258 -0.000013 7.221528 -0.000013 -22.824016 2.668605 1.900574 -2.875723 4.183644 -0.295650 8.175532 -19.814604 -17.878867 -16.081187 -1.834375 -12.029800 -0.000000 -0.000001 -0.000000 1.102066 -0.680165 -6.061518 0.101661 -0.968797 11.980729 0.004698 -0.209498 2.572711 -0.000002 0.000000 -0.000000 -0.001611 -2.387967 9.727170 0.154463 -1.190693 14.781977 0.175993 -1.269462 15.784974 -0.000000 0.000001 0.000003 -0.867566 -1.447768 25.818421 0.308885 -1.669419 20.963492 0.223575 -1.427068 17.807024 0.000000 0.000001 0.000001 -0.048674 -3.938915 32.998102 0.196364 -1.339432 16.679926 0.169666 -1.246888 15.497001 0.000000 0.000000 0.000001 -13.416403 13.833356 8.218744 14.726993 1.769871 3.973082 0.585557 0.869950 -7.126595 -4.979642 -0.000008 0.000004 -0.000000 0.000001 -0.000000 -4.140051 -10.305845 1.060815 13.338299 -10.130526 -3.680847 -6.919118 -2.835823 3.905944 -7.254389 -0.000001 0.000002 -0.000001 -0.000002 -0.000000 
0.600464 96.367050 -1.592760 -2.115264 -4.143735 -1.345588 4.021886 1.590916 2.921377 2.314705 0.436367 2.781994 0.000000 0.000000 0.000000 2.290270 0.457391 2.785429 16.552972 0.223923 0.735685 16.549104 0.195751 0.767801 0.000004 -0.000000 -0.000001 1.195438 -18.055054 -11.449571 0.000000 0.000000 0.000000 -0.053139 -5.109769 -72.478327 0.000001 -0.513306 0.000008 -43.083409 -9.576475 -2.886336 -4.535636 -5.760531 5.272898 8.013575 17.444358 19.096314 -14.076129 2.890423 8.977541 0.000002 0.000003 -0.000005 1.981371 -1.553319 5.104703 0.261185 1.731438 -17.156271 0.054592 0.798705 -7.818688 -0.000000 0.000000 -0.000001 0.063075 2.383963 0.816575 0.239221 1.658547 -16.412750 0.270636 1.761706 -17.465938 0.000000 -0.000000 0.000002 0.252899 3.857524 -12.292134 0.339630 1.967540 -19.586715 0.239477 1.659451 -16.421822 0.000002 0.000001 -0.000005 1.182901 8.689479 -13.069888 0.210927 1.559371 -15.405487 0.180912 1.446100 -14.261280 0.000002 0.000000 -0.000001 0.927800 14.381624 16.455833 0.000000 0.000000 0.000000 8.523576 18.039651 56.775469 0.000001 7.206360 -0.000003 -22.719753 2.536483 2.293768 -2.518363 3.347716 -1.665829 8.358470 -20.261112 -17.815621 -16.001876 -2.287097 -12.202952 0.000001 -0.000001 0.000001 0.994426 0.012596 -4.495786 0.110343 -1.008859 12.484064 0.006813 -0.252284 3.098527 0.000000 0.000001 0.000001 -0.009125 -2.360640 9.950585 0.160986 -1.215257 15.094267 0.183004 -1.293960 16.097776 0.000001 0.000000 0.000000 -0.770626 -1.506724 24.647373 0.310554 -1.673760 21.020628 0.225299 -1.432415 17.876039 -0.000000 -0.000001 0.000001 0.140675 -4.092234 30.942598 0.195775 -1.337451 16.654513 0.170878 -1.251235 15.552383 -0.000001 -0.000000 0.000000 -13.350618 13.833949 8.232658 14.723453 1.757448 3.974893 0.575147 0.869831 -7.129567 -4.982293 0.000007 0.000005 0.000000 -0.000001 -0.000000 -4.067819 -10.317586 1.073485 13.337260 -10.130956 -3.680460 -6.933909 -2.827710 3.910302 -7.260156 0.000003 -0.000000 -0.000000 0.000000 0.000000 
0.598766 96.363594 -1.579184 -2.168341 -4.139045 -1.366150 4.004638 1.589767 2.906518 2.285766 0.435410 2.755101 0.000000 0.000000 0.000000 2.261312 0.456575 2.758410 16.391462 0.173674 0.907388 16.387569 0.146293 0.939451 -0.000000 -0.000000 -0.000001 1.193388 -18.026836 -11.457623 0.000000 0.000000 0.000000 -0.036107 -5.337779 -72.571853 0.000012 -0.619526 0.000031 -42.882308 -9.673947 -2.872511 -4.386744 -5.399183 5.170013 8.136576 17.731379 19.034967 -14.066314 2.916821 8.979830 0.000004 0.000005 0.000003 1.968236 -1.527581 4.797376 0.262081 1.734282 -17.185335 0.055003 0.801655 -7.847749 0.000001 0.000000 0.000000 0.063034 2.409442 0.670877 0.239214 1.658545 -16.412692 0.270689 1.761886 -17.467732 -0.000002 0.000001 0.000001 0.257699 3.878041 -12.362074 0.341315 1.972182 -19.634839 0.240822 1.664071 -16.468949 0.000001 -0.000000 -0.000001 1.223684 8.572282 -13.776169 0.216432 1.579217 -15.606620 0.186073 1.466295 -14.464884 0.000002 -0.000000 0.000003 0.931832 14.367330 16.433384 0.000000 0.000000 0.000000 8.587489 18.201812 56.837764 0.000023 7.185585 -0.000014 -22.622404 2.362199 2.803358 -2.226066 2.403633 -2.658769 8.617343 -20.887883 -17.724278 -15.934182 -2.682889 -12.353630 -0.000001 -0.000003 -0.000002 0.864355 0.580051 -3.005659 0.122186 -1.060887 13.139347 0.010086 -0.306818 3.769095 0.000002 -0.000001 -0.000001 -0.008994 -2.376072 10.149034 0.167766 -1.240019 15.409443 0.190161 -1.318585 16.412943 0.000001 -0.000000 -0.000002 -0.685615 -1.578354 23.685653 0.312862 -1.679764 21.099699 0.227544 -1.439363 17.965727 0.000000 0.000000 0.000003 0.296232 -4.245522 29.173015 0.195611 -1.336879 16.647191 0.172137 -1.255757 15.609976 -0.000000 -0.000001 -0.000001 -13.286538 13.833549 8.251045 14.718699 1.744294 3.977146 0.565329 0.869836 -7.135652 -4.984765 0.000005 0.000006 -0.000001 -0.000001 -0.000000 -3.990527 -10.329881 1.092036 13.325069 -10.131538 -3.680493 -6.942745 -2.819946 3.912898 -7.264783 -0.000001 -0.000001 0.000001 0.000000 -0.000000 
